<?xml version="1.0" encoding="UTF-8"?>
<svg width="20px" height="20px" viewBox="0 0 20 20" version="1.1" xmlns="http://www.w3.org/2000/svg" xmlns:xlink="http://www.w3.org/1999/xlink">
    <!-- Generator: Sketch 41.2 (35397) - http://www.bohemiancoding.com/sketch -->
    <title>Shape</title>
    <desc>Created with Sketch.</desc>
    <defs></defs>
    <g id="Customer---Notes" stroke="none" stroke-width="1" fill="none" fill-rule="evenodd">
        <g id="ProposalNotesDefault_Desktop_1A_OCC" transform="translate(-22.000000, -431.000000)" fill="#4FBDF4">
            <g id="Aside" transform="translate(-1.000000, 0.000000)">
                <g id="nav" transform="translate(0.000000, 122.000000)">
                    <g id="list" transform="translate(1.000000, 0.000000)">
                        <g id="item" transform="translate(0.000000, 297.000000)">
                            <g id="chat-icon" transform="translate(20.000000, 10.000000)">
                                <g id="Group">
                                    <path d="M20,2 L4,2 C2.9,2 2.01,2.9 2.01,4 L2,22 L6,18 L20,18 C21.1,18 22,17.1 22,16 L22,4 C22,2.9 21.1,2 20,2 Z M6,9 L18,9 L18,11 L6,11 L6,9 Z M14,14 L6,14 L6,12 L14,12 L14,14 Z M18,8 L6,8 L6,6 L18,6 L18,8 Z" id="Shape"></path>
                                </g>
                            </g>
                        </g>
                    </g>
                </g>
            </g>
        </g>
    </g>
</svg>