<?xml version="1.0" encoding="UTF-8"?>
<svg width="20px" height="20px" viewBox="0 0 20 20" version="1.1" xmlns="http://www.w3.org/2000/svg" xmlns:xlink="http://www.w3.org/1999/xlink">
    <!-- Generator: Sketch 41.2 (35397) - http://www.bohemiancoding.com/sketch -->
    <title>Shape</title>
    <desc>Created with Sketch.</desc>
    <defs></defs>
    <g id="Customer---Photos" stroke="none" stroke-width="1" fill="none" fill-rule="evenodd">
        <g id="ProposalPhotosMainHover_Desktop_1A_OCC" transform="translate(-662.000000, -356.000000)" fill="#FFFFFF">
            <g id="Body" transform="translate(343.000000, 100.000000)">
                <g id="section">
                    <g id="list" transform="translate(1.000000, 80.000000)">
                        <g id="item" transform="translate(296.000000, 0.000000)">
                            <g id="img">
                                <g id="overlay">
                                    <g id="photo-library-icon" transform="translate(20.000000, 174.000000)">
                                        <g id="Group">
                                            <path d="M22,16 L22,4 C22,2.9 21.1,2 20,2 L8,2 C6.9,2 6,2.9 6,4 L6,16 C6,17.1 6.9,18 8,18 L20,18 C21.1,18 22,17.1 22,16 Z M11,12 L13.03,14.71 L16,11 L20,16 L8,16 L11,12 Z M2,6 L2,20 C2,21.1 2.9,22 4,22 L18,22 L18,20 L4,20 L4,6 L2,6 Z" id="Shape"></path>
                                        </g>
                                    </g>
                                </g>
                            </g>
                        </g>
                    </g>
                </g>
            </g>
        </g>
    </g>
</svg>