<svg width="20" height="20" viewBox="0 0 20 20" xmlns="http://www.w3.org/2000/svg"><title>atom-icon</title><path d="M16.408 11.776c-1.423 1.825-2.91 3.286-4.634 4.628 1.427.824 4.775 2.318 5.86 1.233.74-.74.4-3.056-1.226-5.86m-6.406 3.474c1.982-1.448 3.796-3.262 5.245-5.244-1.443-1.974-3.256-3.79-5.245-5.245-1.997 1.46-3.807 3.278-5.247 5.246 1.45 1.983 3.264 3.796 5.247 5.245m-1.774 1.154c-1.727-1.346-3.215-2.807-4.634-4.628-1.626 2.805-1.967 5.12-1.226 5.86 1.075 1.075 4.394-.384 5.86-1.232M3.594 8.236C5.016 6.41 6.504 4.952 8.228 3.61c-1.425-.826-4.774-2.32-5.86-1.235-.74.74-.4 3.056 1.226 5.86m8.18-4.626c1.727 1.344 3.214 2.804 4.634 4.626 3.61-6.227.88-7.814-4.634-4.627m5.89 6.396c5.434 8.49.764 13.06-7.662 7.668-8.407 5.378-13.116.85-7.663-7.668C-3.06 1.574 1.49-3.104 10 2.338c8.423-5.388 13.1-.83 7.662 7.668m-6.6-1.06c.585.584.585 1.532 0 2.116-.583.584-1.532.584-2.116 0-.585-.584-.585-1.532 0-2.116.584-.585 1.533-.585 2.117 0" fill="#FFFFFF" fill-rule="evenodd" id="app-icon"/></svg>