<?xml version="1.0" encoding="UTF-8"?>
<svg width="18px" height="18px" viewBox="0 0 18 18" version="1.1" xmlns="http://www.w3.org/2000/svg" xmlns:xlink="http://www.w3.org/1999/xlink">
    <!-- Generator: Sketch 41.2 (35397) - http://www.bohemiancoding.com/sketch -->
    <title>Shape</title>
    <desc>Created with Sketch.</desc>
    <defs></defs>
    <g id="Customer---Details" stroke="none" stroke-width="1" fill="none" fill-rule="evenodd">
        <g id="ProposalMainNavOpen_Desktop_1A_OCC" transform="translate(-23.000000, -382.000000)" fill="#BFBFBF">
            <g id="Aside" transform="translate(-1.000000, 0.000000)">
                <g id="nav" transform="translate(0.000000, 122.000000)">
                    <g id="list" transform="translate(1.000000, 0.000000)">
                        <g id="item" transform="translate(0.000000, 247.000000)">
                            <g id="photo-icon" transform="translate(20.000000, 10.000000)">
                                <g id="Group">
                                    <path d="M21,19 L21,5 C21,3.9 20.1,3 19,3 L5,3 C3.9,3 3,3.9 3,5 L3,19 C3,20.1 3.9,21 5,21 L19,21 C20.1,21 21,20.1 21,19 Z M8.5,13.5 L11,16.51 L14.5,12 L19,18 L5,18 L8.5,13.5 Z" id="Shape"></path>
                                </g>
                            </g>
                        </g>
                    </g>
                </g>
            </g>
        </g>
    </g>
</svg>