<?xml version="1.0" encoding="UTF-8"?>
<svg width="16px" height="20px" viewBox="0 0 16 20" version="1.1" xmlns="http://www.w3.org/2000/svg" xmlns:xlink="http://www.w3.org/1999/xlink">
    <!-- Generator: Sketch 41.2 (35397) - http://www.bohemiancoding.com/sketch -->
    <title>Shape</title>
    <desc>Created with Sketch.</desc>
    <defs></defs>
    <g id="Customer---Documents" stroke="none" stroke-width="1" fill="none" fill-rule="evenodd">
        <g id="ProposalDocumentsSort_Desktop_1A_OCC" transform="translate(-364.000000, -373.000000)" fill="#4FBDF4">
            <g id="Body" transform="translate(343.000000, 100.000000)">
                <g id="section">
                    <g id="table" transform="translate(1.000000, 74.000000)">
                        <g id="tbody" transform="translate(0.000000, 39.000000)">
                            <g id="tr" transform="translate(0.000000, 140.000000)">
                                <g id="file-document" transform="translate(20.000000, 20.000000)">
                                    <path d="M9,7 L14.5,7 L9,1.5 L9,7 L9,7 Z M2,0 L10,0 L16,6 L16,18 C16,19.1045695 15.1045695,20 14,20 L2,20 C0.89,20 0,19.1 0,18 L0,2 C0,0.89 0.89,0 2,0 L2,0 Z M11,16 L11,14 L2,14 L2,16 L11,16 L11,16 Z M14,12 L14,10 L2,10 L2,12 L14,12 Z" id="Shape"></path>
                                </g>
                            </g>
                        </g>
                    </g>
                </g>
            </g>
        </g>
    </g>
</svg>