<?xml version="1.0" encoding="UTF-8"?>
<svg width="16px" height="20px" viewBox="0 0 16 20" version="1.1" xmlns="http://www.w3.org/2000/svg" xmlns:xlink="http://www.w3.org/1999/xlink">
    <!-- Generator: Sketch 41.2 (35397) - http://www.bohemiancoding.com/sketch -->
    <title>Shape</title>
    <desc>Created with Sketch.</desc>
    <defs></defs>
    <g id="Customer---Notes" stroke="none" stroke-width="1" fill="none" fill-rule="evenodd">
        <g id="ProposalNotesDefault_Desktop_1A_OCC" transform="translate(-24.000000, -273.000000)" fill="#BFBFBF">
            <g id="Aside" transform="translate(-1.000000, 0.000000)">
                <g id="nav" transform="translate(0.000000, 122.000000)">
                    <g id="list" transform="translate(1.000000, 0.000000)">
                        <g id="item" transform="translate(0.000000, 139.000000)">
                            <g id="document-icon" transform="translate(20.000000, 10.000000)">
                                <g id="Group">
                                    <path d="M14,2 L6,2 C4.9,2 4.01,2.9 4.01,4 L4,20 C4,21.1 4.89,22 5.99,22 L18,22 C19.1,22 20,21.1 20,20 L20,8 L14,2 Z M16,18 L8,18 L8,16 L16,16 L16,18 Z M16,14 L8,14 L8,12 L16,12 L16,14 Z M13,9 L13,3.5 L18.5,9 L13,9 Z" id="Shape"></path>
                                </g>
                            </g>
                        </g>
                    </g>
                </g>
            </g>
        </g>
    </g>
</svg>