<svg width="20" height="20" viewBox="0 0 20 20" xmlns="http://www.w3.org/2000/svg"><title>star-outline-icon</title><path d="M15.034 10.404c-.996 1.012-1.45 2.468-1.215 3.897l.436 2.657-2.29-1.254c-.604-.33-1.284-.506-1.966-.506-.683 0-1.363.175-1.967.506l-2.29 1.254.438-2.656c.236-1.428-.22-2.884-1.215-3.896l-1.852-1.88 2.56-.39C7.05 7.928 8.24 7.028 8.855 5.728L10 3.31l1.145 2.417c.615 1.3 1.805 2.2 3.18 2.408l2.562.388-1.853 1.88zm4.417-.97c1.075-1.092.483-2.993-1.002-3.218l-3.774-.57c-.59-.09-1.1-.476-1.363-1.033L11.624 1.05C11.29.35 10.645 0 10 0c-.646 0-1.292.35-1.624 1.05L6.69 4.614c-.265.557-.775.943-1.364 1.032l-3.774.57C.067 6.442-.526 8.343.548 9.434l2.73 2.773c.428.433.623 1.057.522 1.67l-.645 3.915c-.2 1.22.73 2.21 1.784 2.21.277 0 .565-.07.842-.22l3.375-1.85c.264-.144.553-.217.843-.217.29 0 .578.073.842.217l3.376 1.85c.277.15.564.22.842.22 1.055 0 1.985-.99 1.784-2.21l-.644-3.915c-.1-.612.093-1.236.52-1.67l2.73-2.772z" fill="#FFFFFF" fill-rule="evenodd" id="app-icon"/></svg>