<svg width="20" height="20" viewBox="0 0 20 20" xmlns="http://www.w3.org/2000/svg"><title>star-filled-icon</title><path d="M16.72 12.206c-.427.433-.62 1.057-.52 1.67l.644 3.915c.2 1.22-.73 2.21-1.784 2.21-.278 0-.565-.07-.843-.22l-3.375-1.85c-.264-.144-.553-.216-.843-.216-.29 0-.58.072-.843.216l-3.375 1.85c-.278.15-.565.22-.843.22-1.056 0-1.986-.99-1.785-2.21l.645-3.915c.1-.612-.094-1.236-.52-1.67L.547 9.434C-.526 8.343.068 6.44 1.55 6.216l3.775-.57c.59-.09 1.1-.476 1.363-1.033L8.376 1.05C8.708.35 9.354 0 10 0s1.29.35 1.623 1.05l1.688 3.563c.264.557.774.943 1.364 1.032l3.774.57c1.484.226 2.077 2.127 1.003 3.218l-2.73 2.773z" fill="#FFFFFF" fill-rule="evenodd" id="app-icon" /></svg>