<?xml version="1.0" encoding="UTF-8"?>
<svg width="16px" height="16px" viewBox="0 0 16 16" version="1.1" xmlns="http://www.w3.org/2000/svg" xmlns:xlink="http://www.w3.org/1999/xlink">
    <!-- Generator: Sketch 41.2 (35397) - http://www.bohemiancoding.com/sketch -->
    <title>Shape</title>
    <desc>Created with Sketch.</desc>
    <defs></defs>
    <g id="Customer---Details" stroke="none" stroke-width="1" fill="none" fill-rule="evenodd">
        <g id="ProposalMainNavOpen_Desktop_1A_OCC" transform="translate(-24.000000, -167.000000)" fill="#4FBDF4">
            <g id="Aside" transform="translate(-1.000000, 0.000000)">
                <g id="nav" transform="translate(0.000000, 122.000000)">
                    <g id="list" transform="translate(1.000000, 0.000000)">
                        <g id="item" transform="translate(0.000000, 31.000000)">
                            <g id="person-icon" transform="translate(20.000000, 10.000000)">
                                <g id="Group">
                                    <path d="M12,12 C14.21,12 16,10.21 16,8 C16,5.79 14.21,4 12,4 C9.79,4 8,5.79 8,8 C8,10.21 9.79,12 12,12 Z M12,14 C9.33,14 4,15.34 4,18 L4,20 L20,20 L20,18 C20,15.34 14.67,14 12,14 Z" id="Shape"></path>
                                </g>
                            </g>
                        </g>
                    </g>
                </g>
            </g>
        </g>
    </g>
</svg>