<svg width="155" height="16" viewBox="0 0 155 16" xmlns="http://www.w3.org/2000/svg"><title>ATOMIZER.</title><path id="atomizer-logo" d="M15.32 15L9.32.9H6.48L.48 15h3.14l1.28-3.14h5.92L12.1 15h3.22zm-5.6-5.86H6L7.86 4.6l1.86 4.54zm21.66-5.3V1h-11.6v2.84h4.26V15h3.08V3.84h4.26zM52.5 8v-.04c0-3.98-3.1-7.2-7.42-7.2S37.62 4.02 37.62 8v.04c0 3.98 3.1 7.2 7.42 7.2S52.5 11.98 52.5 8zm-3.22.04c0 2.4-1.72 4.36-4.2 4.36-2.48 0-4.24-2-4.24-4.4v-.04c0-2.4 1.72-4.36 4.2-4.36 2.48 0 4.24 2 4.24 4.4v.04zM74.34 15V1h-3.32l-3.68 5.92L63.66 1h-3.32v14h3.02V5.92l3.9 5.92h.08l3.94-5.98V15h3.06zm11.68 0V1h-3.08v14h3.08zm19.84 0v-2.7h-7.7l7.7-8.96V1H94.44v2.7h7.46l-7.7 8.96V15h11.66zm18.68 0v-2.74h-7.6V9.32h6.6V6.58h-6.6V3.74h7.5V1h-10.56v14h10.66zm19.94 0l-3.42-5c1.78-.66 3-2.08 3-4.34v-.04c0-2.88-1.98-4.62-5.28-4.62h-6.4v14h3.08v-4.48h2.42l3 4.48h3.6zm-3.54-9.18c0 1.18-.86 1.98-2.36 1.98h-3.12V3.78h3.06c1.5 0 2.42.68 2.42 2v.04zm13.8 9.18v-3.2h-3.24V15h3.24z" fill="#FFFFFF" fill-rule="evenodd"/></svg>